<mxfile host="app.diagrams.net" modified="2024-04-12T13:42:18.198Z" agent="Mozilla/5.0 (Windows NT 10.0; Win64; x64) AppleWebKit/537.36 (KHTML, like Gecko) Chrome/123.0.0.0 Safari/537.36" etag="bRqRQpFGjBtuSbVijRyo" version="24.2.2" type="device">
  <diagram name="Página-1" id="mm60gf3sP_owbhB3dJmb">
    <mxGraphModel dx="819" dy="426" grid="1" gridSize="10" guides="1" tooltips="1" connect="1" arrows="1" fold="1" page="1" pageScale="1" pageWidth="827" pageHeight="1169" math="0" shadow="0">
      <root>
        <mxCell id="0" />
        <mxCell id="1" parent="0" />
        <mxCell id="sXgH9hmUgr6o-m0y6AgL-3" value="Usuario registrado&lt;div&gt;&lt;br&gt;&lt;/div&gt;" style="shape=umlActor;verticalLabelPosition=bottom;verticalAlign=top;html=1;" parent="1" vertex="1">
          <mxGeometry x="90" y="330" width="30" height="60" as="geometry" />
        </mxCell>
        <mxCell id="sXgH9hmUgr6o-m0y6AgL-6" value="&lt;div&gt;&lt;br&gt;&lt;/div&gt;&lt;div&gt;&lt;br&gt;&lt;/div&gt;" style="shape=umlFrame;whiteSpace=wrap;html=1;pointerEvents=0;" parent="1" vertex="1">
          <mxGeometry x="210" y="250" width="500" height="260" as="geometry" />
        </mxCell>
        <mxCell id="sXgH9hmUgr6o-m0y6AgL-12" value="Iniciar Sesion" style="ellipse;whiteSpace=wrap;html=1;" parent="1" vertex="1">
          <mxGeometry x="240" y="325" width="120" height="65" as="geometry" />
        </mxCell>
        <mxCell id="sXgH9hmUgr6o-m0y6AgL-13" value="Validar Usuario" style="ellipse;whiteSpace=wrap;html=1;" parent="1" vertex="1">
          <mxGeometry x="510" y="290" width="130" height="70" as="geometry" />
        </mxCell>
        <mxCell id="sXgH9hmUgr6o-m0y6AgL-14" value="Validar Contraseña" style="ellipse;whiteSpace=wrap;html=1;" parent="1" vertex="1">
          <mxGeometry x="510" y="380" width="130" height="70" as="geometry" />
        </mxCell>
        <mxCell id="sXgH9hmUgr6o-m0y6AgL-15" value="&amp;lt;&amp;lt;include&amp;gt;&amp;gt;" style="endArrow=open;endSize=12;dashed=1;html=1;rounded=0;exitX=1.008;exitY=0.308;exitDx=0;exitDy=0;exitPerimeter=0;" parent="1" source="sXgH9hmUgr6o-m0y6AgL-12" edge="1">
          <mxGeometry width="160" relative="1" as="geometry">
            <mxPoint x="360" y="330" as="sourcePoint" />
            <mxPoint x="520" y="330" as="targetPoint" />
          </mxGeometry>
        </mxCell>
        <mxCell id="sXgH9hmUgr6o-m0y6AgL-17" value="&amp;lt;&amp;lt;include&amp;gt;&amp;gt;" style="endArrow=open;endSize=12;dashed=1;html=1;rounded=0;entryX=0;entryY=0.5;entryDx=0;entryDy=0;exitX=1;exitY=1;exitDx=0;exitDy=0;" parent="1" source="sXgH9hmUgr6o-m0y6AgL-12" target="sXgH9hmUgr6o-m0y6AgL-14" edge="1">
          <mxGeometry width="160" relative="1" as="geometry">
            <mxPoint x="360" y="400" as="sourcePoint" />
            <mxPoint x="520" y="400" as="targetPoint" />
          </mxGeometry>
        </mxCell>
        <mxCell id="sXgH9hmUgr6o-m0y6AgL-19" value="" style="endArrow=none;html=1;rounded=0;" parent="1" target="sXgH9hmUgr6o-m0y6AgL-12" edge="1">
          <mxGeometry relative="1" as="geometry">
            <mxPoint x="130" y="360" as="sourcePoint" />
            <mxPoint x="290" y="360" as="targetPoint" />
          </mxGeometry>
        </mxCell>
      </root>
    </mxGraphModel>
  </diagram>
</mxfile>
